<svg width="41" height="46" viewBox="0 0 41 46" fill="none" xmlns="http://www.w3.org/2000/svg">
<path d="M32.6289 36.353C30.3653 36.353 28.5503 38.3555 28.5503 40.853C28.5503 42.0464 28.98 43.191 29.7449 44.0349C30.5098 44.8789 31.5472 45.353 32.6289 45.353C33.7106 45.353 34.748 44.8789 35.5129 44.0349C36.2778 43.191 36.7075 42.0464 36.7075 40.853C36.7075 38.3555 34.8721 36.353 32.6289 36.353ZM0 0.352966V4.85297H4.07861L11.4201 21.9305L8.64665 27.443C8.34076 28.073 8.15722 28.8155 8.15722 29.603C8.15722 30.7964 8.58693 31.941 9.35182 32.7849C10.1167 33.6289 11.1541 34.103 12.2358 34.103H36.7075V29.603H13.0923C12.9571 29.603 12.8274 29.5437 12.7318 29.4382C12.6362 29.3327 12.5825 29.1897 12.5825 29.0405C12.5825 28.928 12.6029 28.838 12.6437 28.7705L14.4791 25.103H29.6719C31.2014 25.103 32.5473 24.158 33.2407 22.7855L40.5414 8.22797C40.6841 7.86797 40.7861 7.48547 40.7861 7.10297C40.7861 6.50623 40.5713 5.93393 40.1888 5.51198C39.8064 5.09002 39.2877 4.85297 38.7468 4.85297H8.58547L6.66853 0.352966M12.2358 36.353C9.9722 36.353 8.15722 38.3555 8.15722 40.853C8.15722 42.0464 8.58693 43.191 9.35182 44.0349C10.1167 44.8789 11.1541 45.353 12.2358 45.353C13.3175 45.353 14.355 44.8789 15.1198 44.0349C15.8847 43.191 16.3144 42.0464 16.3144 40.853C16.3144 38.3555 14.4791 36.353 12.2358 36.353Z" fill="white"/>
</svg>
