<svg width="273" height="48" viewBox="0 0 273 48" fill="none" xmlns="http://www.w3.org/2000/svg">
<path d="M25.4709 12.2486C25.175 11.2898 24.7666 10.4316 24.2457 9.67401C23.7367 8.90459 23.1212 8.24763 22.3991 7.70312C21.6889 7.15862 20.8722 6.75024 19.9489 6.47798C19.0256 6.19389 18.0194 6.05185 16.9304 6.05185C14.9773 6.05185 13.2372 6.54309 11.7102 7.52557C10.1832 8.50805 8.98177 9.95218 8.10582 11.858C7.24171 13.7519 6.80966 16.0601 6.80966 18.7827C6.80966 21.5289 7.24171 23.8549 8.10582 25.7607C8.96993 27.6664 10.1714 29.1165 11.7102 30.1108C13.2491 31.0933 15.0365 31.5845 17.0724 31.5845C18.919 31.5845 20.517 31.2294 21.8665 30.5192C23.2277 29.8089 24.2753 28.8028 25.0092 27.5007C25.7431 26.1868 26.1101 24.648 26.1101 22.8842L27.6016 23.1151H17.7294V17.9659H32.4844V22.3338C32.4844 25.447 31.8215 28.1399 30.4957 30.4126C29.17 32.6854 27.3471 34.4373 25.027 35.6683C22.7069 36.8875 20.0436 37.4972 17.0369 37.4972C13.687 37.4972 10.7455 36.7455 8.21236 35.2422C5.69105 33.727 3.72017 31.5786 2.29972 28.7969C0.891099 26.0033 0.18679 22.6889 0.18679 18.8537C0.18679 15.9181 0.601089 13.2962 1.42969 10.9879C2.27012 8.67969 3.442 6.72064 4.94531 5.11079C6.44863 3.48911 8.21236 2.25805 10.2365 1.41761C12.2607 0.56534 14.4624 0.139203 16.8416 0.139203C18.8539 0.139203 20.7301 0.435131 22.4702 1.02699C24.2102 1.60701 25.755 2.43561 27.1044 3.51278C28.4657 4.58996 29.5843 5.86837 30.4602 7.34801C31.3362 8.82765 31.9103 10.4612 32.1825 12.2486H25.4709ZM46.4181 37.5504C44.6899 37.5504 43.1333 37.2427 41.7484 36.6271C40.3753 35.9998 39.2863 35.0765 38.4814 33.8572C37.6883 32.638 37.2917 31.1347 37.2917 29.3473C37.2917 27.8085 37.5758 26.536 38.144 25.5298C38.7122 24.5237 39.4875 23.7188 40.47 23.1151C41.4525 22.5114 42.5592 22.0556 43.7903 21.7479C45.0332 21.4283 46.3175 21.1974 47.6433 21.0554C49.2413 20.8897 50.5375 20.7417 51.5318 20.6115C52.5261 20.4695 53.2482 20.2564 53.698 19.9723C54.1596 19.6764 54.3904 19.2206 54.3904 18.6051V18.4986C54.3904 17.161 53.9939 16.1252 53.2008 15.3913C52.4077 14.6574 51.2654 14.2905 49.774 14.2905C48.1996 14.2905 46.9508 14.6338 46.0275 15.3203C45.1161 16.0069 44.5005 16.8177 44.1809 17.7528L38.1795 16.9006C38.653 15.2434 39.4342 13.8584 40.5233 12.7457C41.6123 11.6212 42.944 10.7808 44.5183 10.2244C46.0926 9.65625 47.8327 9.37216 49.7385 9.37216C51.0524 9.37216 52.3604 9.52604 53.6625 9.83381C54.9645 10.1416 56.1542 10.6506 57.2314 11.3608C58.3085 12.0592 59.1726 13.0121 59.8237 14.2195C60.4866 15.4268 60.818 16.9361 60.818 18.7472V37H54.639V33.2536H54.426C54.0353 34.0111 53.4849 34.7214 52.7747 35.3842C52.0763 36.0353 51.1944 36.562 50.1291 36.9645C49.0756 37.3551 47.8386 37.5504 46.4181 37.5504ZM48.0872 32.8274C49.3774 32.8274 50.496 32.5729 51.443 32.0639C52.39 31.5431 53.118 30.8565 53.627 30.0043C54.1478 29.152 54.4082 28.2228 54.4082 27.2166V24.0028C54.207 24.1686 53.8637 24.3224 53.3784 24.4645C52.9049 24.6065 52.3722 24.7308 51.7804 24.8374C51.1885 24.9439 50.6026 25.0386 50.0225 25.1214C49.4425 25.2043 48.9395 25.2753 48.5133 25.3345C47.5545 25.4647 46.6963 25.6778 45.9387 25.9737C45.1812 26.2696 44.5834 26.6839 44.1454 27.2166C43.7074 27.7375 43.4885 28.4122 43.4885 29.2408C43.4885 30.4245 43.9205 31.3182 44.7846 31.9219C45.6487 32.5256 46.7496 32.8274 48.0872 32.8274ZM77.4018 37.4794C75.2593 37.4794 73.3417 36.929 71.649 35.8281C69.9563 34.7273 68.6187 33.1293 67.6362 31.0341C66.6537 28.9389 66.1625 26.3939 66.1625 23.3991C66.1625 20.3688 66.6596 17.812 67.6539 15.7287C68.6601 13.6335 70.0154 12.0533 71.72 10.9879C73.4245 9.91075 75.3244 9.37216 77.4196 9.37216C79.0176 9.37216 80.3315 9.64441 81.3613 10.1889C82.3912 10.7216 83.2079 11.3667 83.8116 12.1243C84.4153 12.87 84.8829 13.5743 85.2143 14.2372H85.4806V0.636363H91.926V37H85.6049V32.7031H85.2143C84.8829 33.366 84.4035 34.0703 83.7761 34.8161C83.1487 35.55 82.3201 36.1773 81.2903 36.6982C80.2605 37.219 78.9643 37.4794 77.4018 37.4794ZM79.1951 32.206C80.5564 32.206 81.7164 31.839 82.6752 31.1051C83.6341 30.3594 84.362 29.3236 84.8592 27.9979C85.3564 26.6721 85.6049 25.1274 85.6049 23.3636C85.6049 21.5999 85.3564 20.067 84.8592 18.7649C84.3739 17.4628 83.6518 16.4508 82.693 15.7287C81.746 15.0066 80.5801 14.6456 79.1951 14.6456C77.7628 14.6456 76.5673 15.0185 75.6085 15.7642C74.6497 16.5099 73.9276 17.5398 73.4423 18.8537C72.957 20.1676 72.7143 21.6709 72.7143 23.3636C72.7143 25.0682 72.957 26.5893 73.4423 27.9268C73.9395 29.2526 74.6674 30.3002 75.6262 31.0696C76.5969 31.8272 77.7865 32.206 79.1951 32.206ZM110.636 47.7955C108.328 47.7955 106.345 47.4818 104.688 46.8544C103.031 46.2389 101.699 45.4103 100.693 44.3686C99.6867 43.3269 98.9883 42.1728 98.5977 40.9062L104.386 39.5036C104.646 40.0362 105.025 40.563 105.522 41.0838C106.02 41.6165 106.688 42.0545 107.529 42.3977C108.381 42.7528 109.452 42.9304 110.743 42.9304C112.565 42.9304 114.075 42.4865 115.27 41.5987C116.466 40.7228 117.064 39.2786 117.064 37.2663V32.0994H116.744C116.413 32.7623 115.927 33.4429 115.288 34.1413C114.661 34.8397 113.826 35.4257 112.784 35.8991C111.755 36.3726 110.458 36.6094 108.896 36.6094C106.801 36.6094 104.901 36.1181 103.196 35.1357C101.504 34.1413 100.154 32.6617 99.1481 30.6967C98.1538 28.7199 97.6566 26.246 97.6566 23.2749C97.6566 20.2801 98.1538 17.7528 99.1481 15.6932C100.154 13.6217 101.51 12.0533 103.214 10.9879C104.919 9.91075 106.819 9.37216 108.914 9.37216C110.512 9.37216 111.826 9.64441 112.855 10.1889C113.897 10.7216 114.726 11.3667 115.341 12.1243C115.957 12.87 116.424 13.5743 116.744 14.2372H117.099V9.72727H123.438V37.4439C123.438 39.7758 122.882 41.7053 121.769 43.2322C120.656 44.7592 119.135 45.9015 117.206 46.6591C115.276 47.4167 113.086 47.7955 110.636 47.7955ZM110.689 31.5668C112.051 31.5668 113.211 31.2353 114.169 30.5724C115.128 29.9096 115.856 28.9567 116.353 27.7138C116.85 26.4709 117.099 24.9794 117.099 23.2393C117.099 21.523 116.85 20.0196 116.353 18.7294C115.868 17.4392 115.146 16.4389 114.187 15.7287C113.24 15.0066 112.074 14.6456 110.689 14.6456C109.257 14.6456 108.061 15.0185 107.103 15.7642C106.144 16.5099 105.422 17.5339 104.936 18.8359C104.451 20.1262 104.208 21.594 104.208 23.2393C104.208 24.9084 104.451 26.3703 104.936 27.625C105.434 28.8679 106.162 29.8385 107.12 30.5369C108.091 31.2235 109.281 31.5668 110.689 31.5668ZM142.099 37.5327C139.365 37.5327 137.003 36.9645 135.015 35.8281C133.038 34.6799 131.517 33.0582 130.451 30.9631C129.386 28.8561 128.853 26.3762 128.853 23.5234C128.853 20.718 129.386 18.2559 130.451 16.1371C131.529 14.0064 133.032 12.3492 134.961 11.1655C136.891 9.96993 139.158 9.37216 141.762 9.37216C143.443 9.37216 145.029 9.64441 146.52 10.1889C148.024 10.7216 149.349 11.5502 150.498 12.6747C151.658 13.7992 152.569 15.2315 153.232 16.9716C153.895 18.6998 154.226 20.7595 154.226 23.1506V25.1214H131.872V20.7891H148.065C148.053 19.558 147.787 18.4631 147.266 17.5043C146.745 16.5336 146.017 15.7701 145.082 15.2138C144.159 14.6574 143.082 14.3793 141.85 14.3793C140.537 14.3793 139.382 14.6989 138.388 15.3381C137.394 15.9654 136.618 16.794 136.062 17.8239C135.518 18.8419 135.239 19.9605 135.228 21.1797V24.9616C135.228 26.5478 135.518 27.9091 136.098 29.0455C136.678 30.17 137.489 31.0341 138.53 31.6378C139.572 32.2296 140.791 32.5256 142.188 32.5256C143.123 32.5256 143.969 32.3954 144.727 32.1349C145.484 31.8627 146.141 31.4661 146.698 30.9453C147.254 30.4245 147.674 29.7794 147.958 29.0099L153.96 29.6847C153.581 31.2708 152.859 32.6558 151.794 33.8395C150.74 35.0114 149.391 35.9228 147.745 36.5739C146.1 37.2131 144.218 37.5327 142.099 37.5327ZM173.282 9.72727V14.6989H157.604V9.72727H173.282ZM161.475 3.19318H167.903V28.7969C167.903 29.661 168.033 30.3239 168.293 30.7855C168.565 31.2353 168.921 31.5431 169.358 31.7088C169.796 31.8745 170.282 31.9574 170.814 31.9574C171.217 31.9574 171.584 31.9278 171.915 31.8686C172.259 31.8094 172.519 31.7562 172.697 31.7088L173.78 36.7337C173.436 36.852 172.945 36.9822 172.306 37.1243C171.679 37.2663 170.909 37.3492 169.998 37.3729C168.388 37.4202 166.938 37.1776 165.648 36.6449C164.357 36.1004 163.333 35.2599 162.576 34.1236C161.83 32.9872 161.463 31.5668 161.475 29.8622V3.19318ZM178.942 37V0.636363H185.529V16.0305H202.38V0.636363H208.985V37H202.38V21.5526H185.529V37H178.942ZM233.248 25.5298V9.72727H239.675V37H233.443V32.1527H233.159C232.544 33.6797 231.531 34.9285 230.123 35.8991C228.726 36.8698 227.004 37.3551 224.956 37.3551C223.169 37.3551 221.588 36.9586 220.215 36.1655C218.854 35.3606 217.789 34.1946 217.019 32.6676C216.25 31.1288 215.865 29.2704 215.865 27.0923V9.72727H222.293V26.098C222.293 27.8262 222.766 29.1993 223.713 30.2173C224.66 31.2353 225.903 31.7443 227.442 31.7443C228.389 31.7443 229.306 31.5135 230.194 31.0518C231.082 30.5902 231.81 29.9036 232.378 28.9922C232.958 28.0689 233.248 26.9148 233.248 25.5298ZM246.569 37V0.636363H252.997V14.2372H253.263C253.594 13.5743 254.062 12.87 254.666 12.1243C255.269 11.3667 256.086 10.7216 257.116 10.1889C258.146 9.64441 259.46 9.37216 261.058 9.37216C263.165 9.37216 265.065 9.91075 266.757 10.9879C268.462 12.0533 269.811 13.6335 270.806 15.7287C271.812 17.812 272.315 20.3688 272.315 23.3991C272.315 26.3939 271.824 28.9389 270.841 31.0341C269.859 33.1293 268.521 34.7273 266.828 35.8281C265.136 36.929 263.218 37.4794 261.075 37.4794C259.513 37.4794 258.217 37.219 257.187 36.6982C256.157 36.1773 255.329 35.55 254.701 34.8161C254.086 34.0703 253.606 33.366 253.263 32.7031H252.89V37H246.569ZM252.872 23.3636C252.872 25.1274 253.121 26.6721 253.618 27.9979C254.127 29.3236 254.855 30.3594 255.802 31.1051C256.761 31.839 257.921 32.206 259.282 32.206C260.703 32.206 261.892 31.8272 262.851 31.0696C263.81 30.3002 264.532 29.2526 265.017 27.9268C265.514 26.5893 265.763 25.0682 265.763 23.3636C265.763 21.6709 265.52 20.1676 265.035 18.8537C264.55 17.5398 263.828 16.5099 262.869 15.7642C261.91 15.0185 260.714 14.6456 259.282 14.6456C257.909 14.6456 256.743 15.0066 255.784 15.7287C254.825 16.4508 254.097 17.4628 253.6 18.7649C253.115 20.067 252.872 21.5999 252.872 23.3636Z" fill="#BB2525"/>
</svg>
